<mxfile host="app.diagrams.net" modified="2024-11-20T00:24:38.872Z" agent="Mozilla/5.0 (Macintosh; Intel Mac OS X 10_15_7) AppleWebKit/537.36 (KHTML, like Gecko) Chrome/129.0.0.0 Safari/537.36" version="24.6.4" etag="QLDEzwPYn5qG4KSCQrRh" type="github">
  <diagram name="Page-1" id="nqxrVcMHJvyRHuvHEkZy">
    <mxGraphModel>
      <root>
        <mxCell id="0" />
        <mxCell id="1" parent="0" />
      </root>
    </mxGraphModel>
  </diagram>
</mxfile>
